{"title":"Gorillas in the Mist(1988)MPEG-4[DaScubaDude]","uid":15017921,"size":1484655265,"categoryP":"video","categoryS":"movies","magnet":"?xt=urn:btih:c7da51e5a566910451c501ac49d5c2ec657331a4&amp;dn=Gorillas+in+the+Mist%281988%29MPEG-4%5BDaScubaDude%5D&amp;tr=udp%3A%2F%2Ftracker.leechers-paradise.org%3A6969&amp;tr=udp%3A%2F%2Fzer0day.ch%3A1337&amp;tr=udp%3A%2F%2Fopen.demonii.com%3A1337&amp;tr=udp%3A%2F%2Ftracker.coppersurfer.tk%3A6969&amp;tr=udp%3A%2F%2Fexodus.desync.com%3A6969","seeders":1,"leechers":0,"uploader":"dascuba","files":1,"time":1466458524,"description":"Gorillas in the Mist (1988)\r\nGorillas in the Mist: The Story of Dian Fossey (original title)\r\nPG-13 | 2h 9min | Biography, Drama | 7 October 1988 (USA)\r\nThe story of Dian Fossey, a scientist who came to Africa to study the vanishing mountain gorillas, and later fought to protect them.\r\nDirector: Michael Apted\r\nWriters: Harold T.P. Hayes (article), Dian Fossey (work) | \r\nStars: Sigourney Weaver, Bryan Brown, Julie Harris | \r\n\r\nGeneral\r\nComplete name                            : GorillasIntheMistGORILLAS_Title1.mp4\r\nFormat                                   : MPEG-4\r\nFormat profile                           : Base Media\r\nCodec ID                                 : isom (isom/iso2/avc1/mp41)\r\nFile size                                : 1.38 GiB\r\nDuration                                 : 2h 9mn\r\nOverall bit rate                         : 1 533 Kbps\r\nMovie name                               : GORILLAS\r\nGenre                                    : Drama\r\nWriting application                      : Lavf54.6.100\r\n\r\nVideo\r\nID                                       : 1\r\nFormat                                   : AVC\r\nFormat/Info                              : Advanced Video Codec\r\nFormat profile                           :   \r\nFormat settings, CABAC                   : No\r\nFormat settings, ReFrames                : 6 frames\r\nCodec ID                                 : avc1\r\nCodec ID/Info                            : Advanced Video Coding\r\nDuration                                 : 2h 9mn\r\nBit rate                                 : 1 198 Kbps\r\nWidth                                    : 720 pixels\r\nHeight                                   : 404 pixels\r\nDisplay aspect ratio                     : 16:9\r\nFrame rate mode                          : Constant\r\nFrame rate                               : 29.970 (30000/1001) fps\r\nColor space                              : YUV\r\nChroma subsampling                       : 4:2:0\r\nBit depth                                : 8 bits\r\nScan type                                : Progressive\r\nBits/(Pixel*Frame)                       : 0.137\r\nStream size                              : 1.08 GiB (78%)\r\n\r\nAudio\r\nID                                       : 2\r\nFormat                                   : AAC\r\nFormat/Info                              : Advanced Audio Codec\r\nFormat profile                           : LC\r\nCodec ID                                 : 40\r\nDuration                                 : 2h 9mn\r\nBit rate mode                            : Constant\r\nBit rate                                 : 329 Kbps\r\nChannel(s)                               : 2 channels\r\nChannel(s)_Original                      : 6 channels\r\nChannel positions                        : Front: L C R, Side: L R, LFE\r\nSampling rate                            : 44.1 KHz\r\nFrame rate                               : 43.066 fps (1024 spf)\r\nCompression mode                         : Lossy\r\nStream size                              : 304 MiB (21%)\r\nDefault                                  : Yes\r\nAlternate group                          : 1","torrent":{"xt":"urn:btih:c7da51e5a566910451c501ac49d5c2ec657331a4","amp;dn":"Gorillas+in+the+Mist%281988%29MPEG-4%5BDaScubaDude%5D","amp;tr":["udp%3A%2F%2Ftracker.leechers-paradise.org%3A6969","udp%3A%2F%2Fzer0day.ch%3A1337","udp%3A%2F%2Fopen.demonii.com%3A1337","udp%3A%2F%2Ftracker.coppersurfer.tk%3A6969","udp%3A%2F%2Fexodus.desync.com%3A6969"],"infoHash":"c7da51e5a566910451c501ac49d5c2ec657331a4","infoHashBuffer":{"type":"Buffer","data":[199,218,81,229,165,102,145,4,81,197,1,172,73,213,194,236,101,115,49,164]},"announce":[],"urlList":[]}}